<?xml version="1.0" encoding="UTF-8"?>
<svg version="1.1" xmlns="http://www.w3.org/2000/svg" width="124" height="162">
<path d="M0 0 C40.92 0 81.84 0 124 0 C124 53.46 124 106.92 124 162 C83.08 162 42.16 162 0 162 C0 108.54 0 55.08 0 0 Z " fill="#FEFEFE" transform="translate(0,0)"/>
<path d="M0 0 C2.125 0 2.125 0 5 1 C6.2109375 2.53125 6.2109375 2.53125 7.5 4.5 C12.5875091 11.75680232 20.74185348 15.99094081 28.15625 20.58203125 C28.85766113 21.01660645 29.55907227 21.45118164 30.28173828 21.89892578 C31.63477128 22.73182853 32.99226154 23.55755248 34.35498047 24.37451172 C44.03147857 30.26808768 50.1186819 36.79670475 54.375 47.4375 C55.57474694 54.27605757 55.91416783 60.59345643 53 67 C51.68 67 50.36 67 49 67 C47.10546875 64.5859375 47.10546875 64.5859375 45.1875 61.375 C41.44610973 55.48474431 37.98343296 50.1865545 31.0625 48.125 C30.381875 48.08375 29.70125 48.0425 29 48 C28.72397949 48.73162354 28.44795898 49.46324707 28.16357422 50.21704102 C27.07327889 52.82473644 25.84544435 55.11356359 24.3828125 57.52734375 C23.86364258 58.39141846 23.34447266 59.25549316 22.80957031 60.14575195 C22.25366211 61.06702881 21.69775391 61.98830566 21.125 62.9375 C16.41862499 70.84981095 11.75393879 78.78293136 7.25 86.8125 C6.73711426 87.69993896 6.22422852 88.58737793 5.69580078 89.50170898 C2.7482958 94.81959565 0.57521182 99.80112676 1 106 C2.45168139 110.04258333 4.38680545 112.59120364 8 115 C11.25478052 115.17753348 14.06054518 115.29525723 17.1875 114.3125 C19 114 19 114 21.25 115.4375 C21.8275 115.953125 22.405 116.46875 23 117 C22.58236048 123.36369369 21.08376012 127.45999405 17.6875 132.8125 C17.29626953 133.46669922 16.90503906 134.12089844 16.50195312 134.79492188 C14.41722855 138.17957422 12.57444966 141.03667545 9 143 C6.5 142.5625 6.5 142.5625 4 141 C3.09121094 139.59621094 3.09121094 139.59621094 2.1640625 138.1640625 C-2.84073527 130.8465784 -11.2449239 126.39048319 -18.76855469 121.95336914 C-29.69014943 115.50700308 -40.20279966 108.87227034 -44 96 C-45.49696615 89.69644867 -46.30485692 82.77282095 -43.5 76.8125 C-43.005 76.214375 -42.51 75.61625 -42 75 C-38.0062412 76.33125293 -37.4723389 78.12573728 -35.3125 81.6875 C-32.04759321 86.7261591 -28.69339067 91.57193633 -23 94 C-20.99390135 93.88797429 -20.99390135 93.88797429 -19 93 C-17.46459483 91.21446259 -17.46459483 91.21446259 -16.22265625 88.8984375 C-15.71516846 88.02630615 -15.20768066 87.1541748 -14.68481445 86.25561523 C-14.14945068 85.30501221 -13.61408691 84.35440918 -13.0625 83.375 C-12.50199951 82.40183838 -11.94149902 81.42867676 -11.36401367 80.42602539 C-9.5633999 77.29104833 -7.78171429 74.14574958 -6 71 C-4.77689212 68.86539789 -3.55294023 66.73127916 -2.328125 64.59765625 C-1.1551453 62.54490168 0.0167631 60.49153452 1.1875 58.4375 C1.73978271 57.46925293 2.29206543 56.50100586 2.86108398 55.50341797 C3.37485596 54.59350098 3.88862793 53.68358398 4.41796875 52.74609375 C4.86938232 51.94872803 5.3207959 51.1513623 5.78588867 50.32983398 C8.820979 44.50560977 9.63367443 40.39566161 8 34 C6.17879704 31.18007283 4.99309044 29.49654522 2 28 C-1.34813084 27.96916195 -4.68440413 28.06759967 -8.03125 28.16015625 C-11 28 -11 28 -13 26 C-13.9436827 17.97869703 -8.85478559 10.8022524 -4.19921875 4.6015625 C-2.84968818 3.02335252 -1.43296258 1.50286319 0 0 Z " fill="#CFAB1A" transform="translate(57,9)"/>
</svg>
